<svg width="480" height="980" viewBox="0 0 480 980" fill="none" xmlns="http://www.w3.org/2000/svg">
<rect width="480" height="980" rx="95" fill="#BEE7F5"/>
<rect x="15" y="15" width="450" height="950" rx="80" fill="#333333"/>
<rect x="35" y="35" width="410" height="910" rx="60" fill="#F9FEFF"/>
<path d="M294.774 463.024C293.011 462.417 291.183 461.842 289.302 461.299C289.611 460.037 289.895 458.791 290.147 457.566C294.29 437.458 291.581 421.258 282.332 415.925C273.464 410.811 258.96 416.143 244.312 428.891C242.903 430.117 241.491 431.414 240.079 432.775C239.138 431.875 238.199 431.005 237.262 430.173C221.91 416.542 206.522 410.798 197.283 416.147C188.423 421.276 185.799 436.505 189.528 455.562C189.888 457.403 190.309 459.283 190.785 461.194C188.607 461.812 186.504 462.471 184.493 463.172C166.494 469.447 155 479.282 155 489.483C155 500.018 167.339 510.586 186.086 516.993C187.565 517.499 189.1 517.977 190.682 518.431C190.169 520.498 189.722 522.523 189.347 524.499C185.792 543.225 188.568 558.095 197.405 563.191C206.532 568.455 221.85 563.045 236.766 550.006C237.945 548.976 239.128 547.883 240.313 546.737C241.85 548.216 243.384 549.616 244.909 550.93C259.357 563.363 273.627 568.383 282.455 563.272C291.573 557.994 294.537 542.02 290.689 522.586C290.396 521.102 290.054 519.586 289.67 518.042C290.745 517.724 291.801 517.396 292.831 517.055C312.32 510.598 325 500.159 325 489.483C325 479.245 313.135 469.344 294.774 463.024ZM290.547 510.161C289.618 510.469 288.664 510.767 287.692 511.055C285.54 504.244 282.637 497.001 279.083 489.518C282.474 482.213 285.266 475.063 287.357 468.296C289.096 468.8 290.784 469.33 292.41 469.89C308.142 475.306 317.738 483.313 317.738 489.483C317.738 496.054 307.374 504.586 290.547 510.161ZM283.565 523.997C285.266 532.59 285.509 540.36 284.382 546.433C283.37 551.891 281.334 555.53 278.816 556.987C273.459 560.088 262.002 556.057 249.646 545.425C248.229 544.206 246.802 542.904 245.371 541.527C250.161 536.288 254.949 530.198 259.621 523.434C267.839 522.704 275.604 521.512 282.645 519.884C282.992 521.283 283.3 522.655 283.565 523.997ZM212.957 556.451C207.723 558.3 203.554 558.353 201.034 556.9C195.671 553.807 193.442 541.868 196.483 525.853C196.831 524.019 197.246 522.135 197.723 520.21C204.687 521.75 212.395 522.858 220.633 523.526C225.337 530.144 230.262 536.228 235.226 541.555C234.142 542.602 233.061 543.599 231.987 544.538C225.391 550.303 218.782 554.394 212.957 556.451ZM188.435 510.121C180.145 507.288 173.3 503.606 168.607 499.587C164.391 495.976 162.262 492.392 162.262 489.483C162.262 483.292 171.491 475.397 186.883 470.03C188.751 469.379 190.706 468.765 192.735 468.189C194.862 475.109 197.653 482.343 201.02 489.659C197.609 497.084 194.779 504.434 192.631 511.435C191.184 511.019 189.783 510.582 188.435 510.121ZM196.655 454.168C193.46 437.84 195.582 425.523 200.921 422.432C206.608 419.14 219.185 423.834 232.44 435.604C233.287 436.356 234.137 437.144 234.99 437.958C230.051 443.262 225.171 449.3 220.508 455.879C212.513 456.621 204.86 457.811 197.823 459.405C197.381 457.625 196.989 455.877 196.655 454.168ZM269.985 472.275C268.303 469.369 266.576 466.532 264.815 463.773C270.239 464.459 275.436 465.369 280.317 466.483C278.851 471.179 277.025 476.088 274.876 481.121C273.334 478.194 271.703 475.242 269.985 472.275ZM240.081 443.148C243.431 446.777 246.785 450.829 250.085 455.225C246.76 455.068 243.394 454.987 240 454.987C236.638 454.987 233.297 455.066 229.992 455.221C233.295 450.865 236.679 446.819 240.081 443.148ZM209.986 472.325C208.305 475.239 206.705 478.175 205.187 481.116C203.072 476.1 201.263 471.168 199.785 466.406C204.635 465.321 209.807 464.433 215.197 463.76C213.412 466.545 211.67 469.403 209.986 472.325ZM215.352 515.723C209.784 515.102 204.534 514.26 199.685 513.205C201.186 508.357 203.035 503.32 205.195 498.196C206.717 501.135 208.324 504.072 210.014 506.993C211.736 509.967 213.521 512.881 215.352 515.723ZM240.282 536.329C236.84 532.615 233.407 528.507 230.054 524.088C233.309 524.216 236.627 524.281 240 524.281C243.465 524.281 246.89 524.203 250.262 524.053C246.952 528.552 243.609 532.666 240.282 536.329ZM274.945 497.935C277.217 503.114 279.133 508.125 280.653 512.89C275.724 514.014 270.403 514.92 264.795 515.593C266.56 512.796 268.302 509.911 270.014 506.943C271.746 503.94 273.39 500.932 274.945 497.935ZM263.723 503.314C261.066 507.922 258.338 512.321 255.568 516.473C250.523 516.833 245.312 517.019 240 517.019C234.71 517.019 229.564 516.855 224.608 516.533C221.727 512.327 218.94 507.915 216.299 503.354C213.666 498.805 211.242 494.218 209.046 489.657C211.242 485.085 213.659 480.493 216.278 475.952L216.277 475.953C218.902 471.401 221.665 467.011 224.52 462.83C229.576 462.448 234.76 462.249 240 462.249C245.263 462.249 250.454 462.45 255.508 462.835C258.32 466.985 261.064 471.361 263.699 475.914C266.365 480.518 268.814 485.08 271.028 489.554C268.82 494.105 266.377 498.712 263.723 503.314ZM278.705 422.216C284.397 425.499 286.611 438.739 283.035 456.101C282.806 457.209 282.549 458.337 282.27 459.48C275.218 457.853 267.559 456.642 259.54 455.89C254.869 449.238 250.028 443.19 245.17 437.955C246.476 436.698 247.78 435.5 249.079 434.369C261.63 423.447 273.36 419.134 278.705 422.216ZM240 474.302C248.384 474.302 255.18 481.099 255.18 489.483C255.18 497.866 248.384 504.663 240 504.663C231.616 504.663 224.82 497.866 224.82 489.483C224.82 481.099 231.616 474.302 240 474.302Z" fill="#333333"/>
<path d="M240 85C248.284 85 255 78.2843 255 70C255 61.7157 248.284 55 240 55C231.716 55 225 61.7157 225 70C225 78.2843 231.716 85 240 85Z" fill="#333333"/>
<path d="M130.559 912.466C128.837 911.273 128.837 908.727 130.559 907.534L141.042 900.272C143.031 898.893 145.75 900.317 145.75 902.738V917.262C145.75 919.683 143.031 921.107 141.042 919.728L130.559 912.466Z" fill="#555555"/>
<circle cx="241" cy="910" r="10" fill="#555555"/>
<rect x="333" y="901" width="18" height="18" rx="3" fill="#555555"/>
</svg>
